<svg viewBox="296 370.48 929 265.79" xmlns="http://www.w3.org/2000/svg"><path
        className="symbol"
        d="m 766.78,403.217 c 48.298,-0.14 93.063,-1.297 141.356,-0.946 -24.055,33.521 0.763,-1.045 -21.533,30.121 -1.723,2.606 -4.272,2.224 -7.534,2.374 -60.006,1.015 -9.542,0.636 -59.631,0.816 -6.37,13.39 -6.131,13.247 -18.438,41.418 l 30,1 c -3.505,7.01 -56.46,76.222 -89.66,123.018 -19.98,27.384 -19.982,27.444 -26.781,35.253 l 2.1,-4.726 c 5.61,-11.733 10.954,-23.563 16.154,-35.483 l 2.378,-5.436 C 746.743,564.2 757.946,537.638 769,511 h -28 c 10.317,-25.15 20.78,-50.386 32.224,-75.071 1.127,-2.22 0.178,2.051 0.047,-0.065 l -50.627,0.272 c 23.258,-32.252 0.112,-0.385 23.805,-32.574 m 166.7898,-11.398 c -11.286,0.423 -18.78265,0.457 -27.28965,0.836 14.40931,-7.46726 29.35085,-17.745 36.06785,-22.516 m -169.65,149.54 c -18.09712,19.79 -18.25712,19.87481 -36.31729,38.95968 19.74575,-38.13093 1.36393,-1.17593 19.20256,-38.55331 M 685.136,403.136 c 16.498,2.11 30.576,5.169 46.864,6.864 -2.14,2.852 -7.32661,10.6801 -9.18061,13.2541 C 705.67551,418.23885 687.799,404.301 685.136,403.136 m 72.12339,-8.93536 C 747.11839,396.94664 748.88037,394.37039 738,401 724.43,383.11 727.704,388.642 724.746,382.763 m 45.17425,203.26491 c -3.66547,37.74604 -0.25823,-1.0465 -4.39122,39.13218 -11.6377,-24.88593 0.199,0.37201 -11.52619,-23.99887 m 74.24951,-129.48293 c -4.59224,-2.16646 -3.92928,-1.97636 -12.00835,-4.23729 17.67055,-10.3007 17.9654,-10.29399 29.69317,-17.28027"
      />
      <path
        className="letters"
        d="M667 452c1.348 23.416 1.118 46.847 1.069 70.291q-.014 8.257-.02 16.516-.015 16.096-.049 32.193c-8.95 4.475-19.994 1-30 1l-1-64-14 23a7094 7094 0 0 1-8.75 14.313l-2.07 3.392-1.977 3.22c-.57.933-1.141 1.866-1.73 2.826-2.66 4.06-2.66 4.06-5.828 4.796-3.114.223-5.591.132-8.645-.547-1.822-1.812-1.822-1.812-3.371-4.25l-1.784-2.755L587 549l-1.91-3.034a970 970 0 0 1-5.965-9.716c-5.593-9.16-11.247-18.27-17.125-27.25-.985 3.283-1.116 6.235-1.098 9.655l.01 3.437.025 3.697.012 3.802q.02 6.018.051 12.034.04 7.926.063 15.852l.025 3.708.01 3.419.016 3.018C561 570 561 570 560 572h-28c-1.215-2.43-1.123-3.967-1.12-6.682l-.004-2.992.01-3.293v-3.46c0-3.787.009-7.574.016-11.362l.005-7.861q.005-9.302.021-18.604.015-10.59.022-21.177.015-21.784.05-43.569c3.995-.229 7.988-.395 11.988-.505q2.037-.068 4.07-.188c11.243-.646 11.243-.646 15.452 2.672 3.139 3.9 5.596 8.091 7.357 12.787 1.7 4.245 3.571 7.847 6.07 11.671l1.864 3.016L580 486l4.893 7.893q1.68 2.712 3.365 5.423l1.594 2.57 1.57 2.533c2.153 3.521 4.229 7.086 6.294 10.658 1.146 2.06 1.146 2.06 3.284 2.923l.781-2.633c1.244-3.436 2.765-6.16 4.719-9.242l1.057-1.683q1.128-1.793 2.265-3.584c2.012-3.173 4-6.36 5.99-9.546l1.258-2.008q4.13-6.596 8.19-13.233a349 349 0 0 1 2.88-4.603c2.148-3.414 3.836-6.399 5.16-10.238 1.372-3.765 2.731-5.553 5.7-8.23 3.013-.764 3.013-.764 6.398-.95l3.678-.212c5.987-.139 11.944.162 17.924.162m-107 53 1 2zm560-53c2.104.154 4.212.25 6.32.316l3.809.127 3.996.12 4.02.13c3.285.107 6.3.073 9.584.171 1.883.634 1.371 4.455 1.293 7.332l-.062 2.583-.081 2.701-.063 2.493c-.078 3.072-.167 6.143-.254 9.214l.205 20.43 44.507.575c.392-14.672.488-14.96 1.013-29.631l.134-5.618-.015-2.865.096-2.672.133-2.506c-.407-2.188.12-1.18.401-2.941L1199 452l26 1v118c-4.563 2.281-10.928 1.185-15.937 1.188l-3.944.037-3.771.005-3.469.013c-2.879-.243-.578.093-3.913-.565l.096-3.774h-.014l-.582-41.904-44.466 1v44c-2.922 1.461-5.499 1.111-8.758 1.098l-2.01-.005c-2.118-.005-4.238-.018-6.357-.03q-2.154-.008-4.309-.014-5.283-.017-10.566-.049-.035-23.22-.052-46.443c0-7.188-.012-14.376-.023-21.564q-.015-9.395-.02-18.79l-.01-9.953c-.01-3.7-.01-7.4-.01-11.1l-.01-3.35v-5.695c.123-2.105.14-2.088.259-2.868M876 453h92v26h-61l1 19 4.666-.016q8.535-.025 17.069-.039 3.7-.008 7.4-.02 5.305-.017 10.611-.023l3.365-.015h3.094l2.739-.007C959 498 959 498 960 499q.121 2.673.098 5.348l-.01 3.271-.025 3.443-.014 3.456q-.018 4.241-.049 8.482c-9.584 1.22-19.168 1.153-28.81 1.13-2.777-.005-5.555 0-8.333.007q-2.649 0-5.298-.004l-2.516.006c-5.813-.024-5.813-.024-8.043-1.139v22l4.954-.108q9.107-.195 18.215-.374 3.94-.08 7.88-.166 5.667-.122 11.334-.23l3.552-.083 3.335-.06 2.92-.061C962 544 962 544 968 545v26c-11.338.81-22.57 1.15-33.934 1.133l-4.968.003q-5.145.002-10.294-.006-6.607-.006-13.215.004-5.1.005-10.203 0l-4.88.002q-3.381.003-6.762-.007l-3.884-.002C877 572 877 572 876 571a72 72 0 0 1-.12-4.6l-.004-3.013.01-3.333v-3.488c0-3.825.009-7.65.016-11.476l.005-7.933q.005-9.392.021-18.784.017-11.74.023-23.477c.01-13.965.03-27.93.049-41.896m-455 0h91v26l-60 1-1 18 4.758-.016q8.7-.025 17.404-.039 3.772-.008 7.546-.02 5.41-.017 10.82-.023l3.43-.015h3.155l2.793-.007C503 498 503 498 504 499q.121 2.673.098 5.348l-.01 3.271-.026 3.443-.013 3.456q-.018 4.241-.049 8.482c-2.462 1.23-4.065 1.12-6.817 1.114h-3.033l-3.283-.016-3.354-.005c-3.546-.005-7.092-.018-10.638-.03q-3.6-.009-7.2-.014-8.837-.017-17.675-.049l-1 21h61v26c-11.353.815-22.59 1.136-33.969 1.098l-4.976-.005q-6.46-.006-12.92-.024-6.63-.014-13.256-.02-12.94-.015-25.879-.049c-1.22-2.439-1.109-3.957-1.082-6.682l.021-2.992.04-3.293.028-3.46c.033-3.787.074-7.574.114-11.362l.072-7.861q.086-9.302.18-18.604c.08-7.751.15-15.502.223-23.254.128-13.83.266-27.661.404-41.492m-15 1-1.11 1.258q-5.151 5.866-10.218 11.805c-4.817 5.643-9.687 11.224-14.668 16.722-6.855 7.577-13.42 15.404-20.004 23.215 1.331 2.878 2.833 5.192 4.871 7.617l1.723 2.067 1.844 2.191c4.448 5.341 8.855 10.702 13.125 16.188a896 896 0 0 0 12.125 15.187l1.663 2.042 3.18 3.903q3.09 3.8 6.156 7.617l1.825 2.27c1.232 1.588 2.373 3.246 3.488 4.918-5.32 1.773-11.052 1.305-16.624 1.35q-2.246.025-4.492.082c-.167 0-6.501.091-6.501.091l-3.925.06c-4.36-.735-5.68-2.226-8.458-5.583l-1.602-1.83-1.378-1.701-1.574-1.938-1.634-2.031-1.719-2.127C356.957 550.994 351.966 544.512 347 538a3054 3054 0 0 0-7-9c-5.736 1.912-9.086 6.889-12 12-1.036 5.27-.867 10.356-.562 15.688q.067 2.092.123 4.185c.105 3.38.252 6.751.439 10.127-10.124 3.375-21.328 1-32 1V453h31l1 51c5.917-6.992 11.781-13.957 17.555-21.055 3.472-4.182 7.048-8.27 10.621-12.367q6.24-7.19 12.215-14.601C370 454 370 454 371 453c2.423-.185 4.82-.308 7.246-.387l2.201-.077q2.31-.078 4.618-.149c2.36-.074 4.718-.165 7.078-.256q2.238-.073 4.478-.143l2.147-.088c5.003-.129 5.003-.129 7.232 2.1m667.39 1.16c.186.049 14.332 3.804 25.61 18.84-1.485 3.632-3.493 5.432-6.625 7.813a181 181 0 0 0-11.781 9.937C1079 493 1079 493 1077 493a281 281 0 0 1-5-5c-6.731-6.357-15.934-8.207-25-8-10.124 1.516-16.905 4.996-23.457 12.879-5.363 7.373-6.087 16.737-5.328 25.64 1.538 8.363 5.751 15.615 12.355 20.973 8.838 5.485 18.94 6.76 28.993 4.82 6.259-2.39 15.303-6.043 18.437-12.312 5.024 1.528 8.29 4.576 12.125 8q1.845 1.627 3.695 3.25c.54.48 1.078.96 1.634 1.453 1.727 1.497 1.727 1.497 4.546 3.297-5.516 11.722-17.303 18.862-29.129 23.129-17.652 5.465-37.119 4.532-53.746-3.817-5.692-3.39-10.446-7.65-15.125-12.312l-1.71-1.64c-11.073-11.6-14.786-27.84-14.642-43.355.449-15.556 6.358-29.813 17.352-41.005l2-2c19.021-16.083 45.049-19.998 68.39-11.84" />
    </svg>