<svg xmlns="http://www.w3.org/2000/svg" viewBox="685.14 370.48 236.88 265.79"><path d="M766.78 403.217c48.298-.14 93.063-1.297 141.356-.946-24.055 33.521.763-1.045-21.533 30.121-1.723 2.606-4.272 2.224-7.534 2.374-60.006 1.015-9.542.636-59.631.816-6.37 13.39-6.131 13.247-18.438 41.418l30 1c-3.505 7.01-56.46 76.222-89.66 123.018-19.98 27.384-19.982 27.444-26.781 35.253l2.1-4.726c5.61-11.733 10.954-23.563 16.154-35.483l2.378-5.436C746.743 564.2 757.946 537.638 769 511h-28c10.317-25.15 20.78-50.386 32.224-75.071 1.127-2.22.178 2.051.047-.065l-50.627.272c23.258-32.252.112-.385 23.805-32.574m166.79-11.398c-11.286.423-18.783.457-27.29.836 14.41-7.467 29.351-17.745 36.068-22.516m-169.65 149.54c-18.097 19.79-18.257 19.875-36.317 38.96 19.745-38.131 1.364-1.176 19.202-38.554m-50.116-117.294c16.498 2.11 30.576 5.169 46.864 6.864-2.14 2.852-7.327 10.68-9.18 13.254-17.144-5.015-35.021-18.953-37.684-20.118m72.123-8.935c-10.14 2.746-8.379.17-19.259 6.799-13.57-17.89-10.296-12.358-13.254-18.237m45.174 203.265c-3.665 37.746-.258-1.047-4.391 39.132-11.638-24.886.199.372-11.526-23.999m74.25-129.483c-4.593-2.166-3.93-1.976-12.009-4.237 17.67-10.3 17.965-10.294 29.693-17.28" fill="#ff8000"/></svg>