<svg xmlns:inkscape="http://www.inkscape.org/namespaces/inkscape" xmlns:sodipodi="http://sodipodi.sourceforge.net/DTD/sodipodi-0.dtd" xmlns="http://www.w3.org/2000/svg" xmlns:svg="http://www.w3.org/2000/svg" version="1.1" id="svg1" sodipodi:docname="tab_logo_new.svg" inkscape:version="1.3.2 (091e20e, 2023-11-25)" viewBox="685.14 402.21 223 234.07">
  <defs id="defs1"/>
  <sodipodi:namedview id="namedview1" pagecolor="#ffffff" bordercolor="#000000" borderopacity="0.25" inkscape:showpageshadow="2" inkscape:pageopacity="0.0" inkscape:pagecheckerboard="0" inkscape:deskcolor="#d1d1d1" inkscape:zoom="0.88791901" inkscape:cx="118.81714" inkscape:cy="132.895" inkscape:window-width="1312" inkscape:window-height="449" inkscape:window-x="0" inkscape:window-y="25" inkscape:window-maximized="0" inkscape:current-layer="svg1"/>
  <path d="m 766.78,403.217 c 48.298,-0.14 93.063,-1.297 141.356,-0.946 -24.055,33.521 0.763,-1.045 -21.533,30.121 -1.723,2.606 -4.272,2.224 -7.534,2.374 -60.006,1.015 -9.542,0.636 -59.631,0.816 -6.37,13.39 -6.131,13.247 -18.438,41.418 l 30,1 c -3.505,7.01 -56.46,76.222 -89.66,123.018 -19.98,27.384 -19.982,27.444 -26.781,35.253 l 2.1,-4.726 c 5.61,-11.733 10.954,-23.563 16.154,-35.483 l 2.378,-5.436 C 746.743,564.2 757.946,537.638 769,511 h -28 c 10.317,-25.15 20.78,-50.386 32.224,-75.071 1.127,-2.22 0.178,2.051 0.047,-0.065 l -50.627,0.272 c 23.258,-32.252 0.112,-0.385 23.805,-32.574 m -61.313,-0.426 h 0" fill="#ff8000" id="path1" sodipodi:nodetypes="cccccccccccccccccccc"/>
</svg>